<mxfile host="app.diagrams.net" modified="2024-07-06T16:22:33.720Z" agent="Mozilla/5.0 (Windows NT 10.0; Win64; x64) AppleWebKit/537.36 (KHTML, like Gecko) Chrome/126.0.0.0 Safari/537.36" version="24.3.1" etag="ZU_kqdfgNBFYCMTR4bio" type="github">
  <diagram name="Strona-1" id="snUQdnOVZQ5LM7uMxvrw">
    <mxGraphModel>
      <root>
        <mxCell id="0" />
        <mxCell id="1" parent="0" />
      </root>
    </mxGraphModel>
  </diagram>
</mxfile>
